<svg width="35" height="34" viewBox="0 0 35 34" fill="none" xmlns="http://www.w3.org/2000/svg">
<path fill-rule="evenodd" clip-rule="evenodd" d="M23.1294 21.1997L18.9371 16.9839L23.1529 12.7917C23.5414 12.4053 23.5425 11.7782 23.1568 11.3903C22.7711 11.0025 22.144 11 21.7555 11.3864L17.5397 15.5787L13.3474 11.3629C12.9617 10.975 12.3346 10.9726 11.9461 11.359C11.5575 11.7453 11.5565 12.3724 11.9422 12.7603L16.1344 16.9761L11.9186 21.1683C11.5301 21.5547 11.529 22.1818 11.9147 22.5697C12.3004 22.9575 12.9275 22.96 13.3161 22.5736L17.5318 18.3813L21.7241 22.5971C22.1098 22.985 22.7369 22.9874 23.1254 22.601C23.514 22.2147 23.515 21.5876 23.1294 21.1997Z" fill="black"/>
<mask id="mask0" style="mask-type:alpha" maskUnits="userSpaceOnUse" x="11" y="11" width="13" height="12">
<path fill-rule="evenodd" clip-rule="evenodd" d="M23.1294 21.1997L18.9371 16.9839L23.1529 12.7917C23.5414 12.4053 23.5425 11.7782 23.1568 11.3903C22.7711 11.0025 22.144 11 21.7555 11.3864L17.5397 15.5787L13.3474 11.3629C12.9617 10.975 12.3346 10.9726 11.9461 11.359C11.5575 11.7453 11.5565 12.3724 11.9422 12.7603L16.1344 16.9761L11.9186 21.1683C11.5301 21.5547 11.529 22.1818 11.9147 22.5697C12.3004 22.9575 12.9275 22.96 13.3161 22.5736L17.5318 18.3813L21.7241 22.5971C22.1098 22.985 22.7369 22.9874 23.1254 22.601C23.514 22.2147 23.515 21.5876 23.1294 21.1997Z" fill="white"/>
</mask>
<g mask="url(#mask0)">
<rect x="17.583" y="0.164307" width="23.7816" height="23.7816" transform="rotate(45.1603 17.583 0.164307)" fill="white"/>
</g>
</svg>
