<svg width="18" height="18" viewBox="0 0 18 18" fill="none" xmlns="http://www.w3.org/2000/svg">
<g clip-path="url(#clip0)">
<g filter="url(#filter0_d)">
<path d="M8.97364 4.59641C6.21878 0.341121 0.643066 2.65926 0.643066 7.29469C0.643066 10.7755 8.28707 16.2205 8.97364 16.9285C9.66492 16.2205 16.9288 10.7755 16.9288 7.29469C16.9288 2.69441 11.7336 0.341121 8.97364 4.59641Z" fill="black"/>
<path d="M8.55392 4.86813L8.97325 5.51585L9.39313 4.86849C10.655 2.92303 12.401 2.55138 13.8069 3.09146C15.2446 3.64372 16.4288 5.18729 16.4288 7.29469C16.4288 8.00946 16.0469 8.89776 15.3704 9.88655C14.704 10.8604 13.7993 11.8642 12.8585 12.7963C11.92 13.7262 10.9577 14.5729 10.1836 15.2338C9.90552 15.4712 9.65342 15.6833 9.43449 15.8674C9.34818 15.94 9.26702 16.0082 9.19147 16.072C9.113 16.1382 9.03865 16.2011 8.97017 16.2598C8.89711 16.1991 8.81767 16.1342 8.73405 16.0662C8.62456 15.9771 8.50504 15.8806 8.37574 15.7761C8.17363 15.6128 7.94763 15.4303 7.6987 15.2269C6.88913 14.5654 5.87981 13.7183 4.8941 12.7878C3.90606 11.8552 2.95483 10.851 2.25405 9.87691C1.54145 8.88639 1.14307 8.00171 1.14307 7.29469C1.14307 5.18906 2.4036 3.63788 3.94494 3.08187C5.46295 2.53428 7.30197 2.93431 8.55392 4.86813Z" stroke="white"/>
</g>
</g>
<defs>
<filter id="filter0_d" x="-3.35693" y="2.35706" width="24.2857" height="22.5715" filterUnits="userSpaceOnUse" color-interpolation-filters="sRGB">
<feFlood flood-opacity="0" result="BackgroundImageFix"/>
<feColorMatrix in="SourceAlpha" type="matrix" values="0 0 0 0 0 0 0 0 0 0 0 0 0 0 0 0 0 0 127 0" result="hardAlpha"/>
<feOffset dy="4"/>
<feGaussianBlur stdDeviation="2"/>
<feComposite in2="hardAlpha" operator="out"/>
<feColorMatrix type="matrix" values="0 0 0 0 0 0 0 0 0 0 0 0 0 0 0 0 0 0 0.25 0"/>
<feBlend mode="normal" in2="BackgroundImageFix" result="effect1_dropShadow"/>
<feBlend mode="normal" in="SourceGraphic" in2="effect1_dropShadow" result="shape"/>
</filter>
<clipPath id="clip0">
<rect width="18" height="18" fill="white"/>
</clipPath>
</defs>
</svg>
