<svg width="22" height="22" viewBox="0 0 22 22" fill="none" xmlns="http://www.w3.org/2000/svg">
<g filter="url(#filter0_d)">
<mask id="path-1-inside-1" fill="white">
<path fill-rule="evenodd" clip-rule="evenodd" d="M11.5 0.5H10.5V6.5H4.5V7.5H10.5V13.5H11.5V7.5H17.5V6.5H11.5V0.5Z"/>
</mask>
<path fill-rule="evenodd" clip-rule="evenodd" d="M11.5 0.5H10.5V6.5H4.5V7.5H10.5V13.5H11.5V7.5H17.5V6.5H11.5V0.5Z" fill="#888888"/>
<path d="M10.5 0.5V-0.5H9.5V0.5H10.5ZM11.5 0.5H12.5V-0.5H11.5V0.5ZM10.5 6.5V7.5H11.5V6.5H10.5ZM4.5 6.5V5.5H3.5V6.5H4.5ZM4.5 7.5H3.5V8.5H4.5V7.5ZM10.5 7.5H11.5V6.5H10.5V7.5ZM10.5 13.5H9.5V14.5H10.5V13.5ZM11.5 13.5V14.5H12.5V13.5H11.5ZM11.5 7.5V6.5H10.5V7.5H11.5ZM17.5 7.5V8.5H18.5V7.5H17.5ZM17.5 6.5H18.5V5.5H17.5V6.5ZM11.5 6.5H10.5V7.5H11.5V6.5ZM10.5 1.5H11.5V-0.5H10.5V1.5ZM11.5 6.5V0.5H9.5V6.5H11.5ZM4.5 7.5H10.5V5.5H4.5V7.5ZM5.5 7.5V6.5H3.5V7.5H5.5ZM10.5 6.5H4.5V8.5H10.5V6.5ZM11.5 13.5V7.5H9.5V13.5H11.5ZM11.5 12.5H10.5V14.5H11.5V12.5ZM10.5 7.5V13.5H12.5V7.5H10.5ZM17.5 6.5H11.5V8.5H17.5V6.5ZM16.5 6.5V7.5H18.5V6.5H16.5ZM11.5 7.5H17.5V5.5H11.5V7.5ZM10.5 0.5V6.5H12.5V0.5H10.5Z" fill="#888888" mask="url(#path-1-inside-1)"/>
</g>
<defs>
<filter id="filter0_d" x="0.5" y="0.5" width="21" height="21" filterUnits="userSpaceOnUse" color-interpolation-filters="sRGB">
<feFlood flood-opacity="0" result="BackgroundImageFix"/>
<feColorMatrix in="SourceAlpha" type="matrix" values="0 0 0 0 0 0 0 0 0 0 0 0 0 0 0 0 0 0 127 0" result="hardAlpha"/>
<feOffset dy="4"/>
<feGaussianBlur stdDeviation="2"/>
<feComposite in2="hardAlpha" operator="out"/>
<feColorMatrix type="matrix" values="0 0 0 0 0 0 0 0 0 0 0 0 0 0 0 0 0 0 0.25 0"/>
<feBlend mode="normal" in2="BackgroundImageFix" result="effect1_dropShadow"/>
<feBlend mode="normal" in="SourceGraphic" in2="effect1_dropShadow" result="shape"/>
</filter>
</defs>
</svg>
